<svg fill="none" xmlns="http://www.w3.org/2000/svg" viewBox="0 0 32 32"><path fill="#390099" d="M0 0h32v32H0z"/><path d="M18.949 5.72a.672.672 0 0 0-.635-.456h-4.341a.673.673 0 0 0-.635.457L6.325 26.096A.68.68 0 0 0 6.96 27h3.275a.673.673 0 0 0 .641-.479l1.323-4.315a.673.673 0 0 1 .641-.478h6.596c.295 0 .555.194.642.479l1.319 4.314c.087.285.347.479.642.479h3.289a.68.68 0 0 0 .634-.904L18.949 5.72Zm-.97 12.604h-3.678a.679.679 0 0 1-.642-.882l2.2-7.176a.382.382 0 0 1 .281-.128c.198 0 .291.14.291.14l2.19 7.164a.679.679 0 0 1-.641.882Z" fill="#fff"/><path opacity=".6" fill-rule="evenodd" clip-rule="evenodd" d="M0 15.375h7.93c.286 0 .54-.183.635-.457l3.009-8.751a.68.68 0 0 0-.635-.904H0v10.112ZM0 26.996h3.934c.286 0 .54-.183.635-.456l3.009-8.752a.68.68 0 0 0-.635-.904H0v10.112Z" fill="#fff"/></svg>
