<svg fill="none" height="28" viewBox="0 0 42 28" width="42" xmlns="http://www.w3.org/2000/svg"><g fill="#fff"><path d="m25.1969 10.7196-5.7501 5.0377-1.4213-1.2887c-.7108-.6444-1.8091-.6444-2.5197 0-.7107.6443-.7107 1.6402 0 2.2845l2.5197 2.2845c.3876.3515.9045.4687 1.4213.4687.5169 0 1.0983-.1758 1.6152-.4687l6.6546-5.8577c.7106-.6444.7106-1.6402 0-2.2845-.7753-.6444-1.8091-.8201-2.5197-.1758z"/><path d="m37.9245 8.78661c-1.8089-1.8159-4.3286-3.1046-6.9775-3.57322-1.4214-2.10879-3.7473-3.74896-6.2669-4.569039-1.2276-.468619-2.5198-.644351-3.9412-.644351-6.4607 0-11.88769 4.56904-12.21072 10.251-4.91017.6444-8.52818 4.3934-8.52818 8.7867 0 4.9205 4.52252 8.9623 9.88493 8.9623h18.67157c7.0422 0 12.7922-5.2134 12.7922-11.5398 0-2.8117-1.2275-5.5648-3.4242-7.67359zm-9.4972 16.10879h-18.73619c-3.61801 0-6.26692-2.4603-6.26692-5.682 0-3.2218 2.90734-5.682 6.26692-5.682h2.13209v-2.2845c0-4.39334 3.941-7.96657 8.7866-7.96657 1.0983 0 2.0028.17574 2.9073.46862 2.0029.64435 3.7473 1.93306 4.8456 3.74896l.5168.82008.9045.17573c2.132.17574 4.3288 1.11297 5.7501 2.63598 1.6152 1.6402 2.5197 3.5732 2.5197 5.682-.3231 4.3347-4.4579 8.0837-9.6265 8.0837z"/></g></svg>